<svg width="18" height="16" viewBox="0 0 18 16" fill="none" xmlns="http://www.w3.org/2000/svg">
<path d="M4.35 12.7748C2.49166 11.5582 1.29166 9.72483 1.29166 8.1165C1.29166 5.38317 4.74166 2.03316 9 2.03316C10.7417 2.03316 12.3583 2.5915 13.6583 3.45816" stroke="#727272" stroke-width="1.5" stroke-linecap="round" stroke-linejoin="round"/>
<path d="M15.5414 5.17516C16.2839 6.11683 16.7164 7.1585 16.7164 8.11683C16.7164 10.8502 13.2581 14.2002 8.99975 14.2002C8.24142 14.2002 7.50058 14.0918 6.80808 13.9002" stroke="#727272" stroke-width="1.5" stroke-linecap="round" stroke-linejoin="round"/>
<path d="M7.13808 9.9725C6.64225 9.48167 6.36475 8.8125 6.36725 8.115C6.36392 6.66083 7.54058 5.47917 8.99558 5.47667C9.69558 5.475 10.3673 5.7525 10.8623 6.2475" stroke="#727272" stroke-width="1.5" stroke-linecap="round" stroke-linejoin="round"/>
<path d="M11.5912 8.58258C11.3962 9.65925 10.5537 10.5034 9.47708 10.7009" stroke="#727272" stroke-width="1.5" stroke-linecap="round" stroke-linejoin="round"/>
<path d="M15.5764 1.54158L2.43141 14.6866" stroke="#727272" stroke-width="1.5" stroke-linecap="round" stroke-linejoin="round"/>
</svg>
